<?xml version="1.0" encoding="UTF-8" standalone="no"?>
<svg
   version="1.1"
   height="50"
   width="50"
   id="svg3556"
   sodipodi:docname="icon.svg"
   inkscape:version="1.1.1 (3bf5ae0d25, 2021-09-20, custom)"
   xmlns:inkscape="http://www.inkscape.org/namespaces/inkscape"
   xmlns:sodipodi="http://sodipodi.sourceforge.net/DTD/sodipodi-0.dtd"
   xmlns="http://www.w3.org/2000/svg"
   xmlns:svg="http://www.w3.org/2000/svg"
   xmlns:rdf="http://www.w3.org/1999/02/22-rdf-syntax-ns#"
   xmlns:cc="http://creativecommons.org/ns#"
   xmlns:dc="http://purl.org/dc/elements/1.1/">
  <defs
     id="defs3560" />
  <sodipodi:namedview
     id="namedview3558"
     pagecolor="#ffffff"
     bordercolor="#666666"
     borderopacity="1.0"
     inkscape:pageshadow="2"
     inkscape:pageopacity="0.0"
     inkscape:pagecheckerboard="true"
     showgrid="false"
     inkscape:zoom="12.020815"
     inkscape:cx="33.649964"
     inkscape:cy="24.12482"
     inkscape:window-width="1920"
     inkscape:window-height="1062"
     inkscape:window-x="0"
     inkscape:window-y="18"
     inkscape:window-maximized="1"
     inkscape:current-layer="g3554" />
  <title
     id="title3538">Rook</title>
  <description>
    Western white-side Rook
  </description>
  <g
     transform="matrix(1.5873016,0,0,1.5873016,-10.714286,-13.095238)"
     stroke="#000"
     stroke-miterlimit="4"
     stroke-dasharray="none"
     stroke-width="1.5"
     id="g3554">
    <path
       style="fill:#ffffff;stroke:#ffffff;stroke-width:0.196642;stroke-miterlimit:4;stroke-dasharray:none"
       d="m 11.969726,35.631458 c -0.26078,-0.191856 -0.268684,-0.242363 -0.268752,-1.71721 -6.8e-5,-1.462755 0.0091,-1.528279 0.239095,-1.708929 0.128178,-0.100679 0.15138,-0.103228 1.054662,-0.115827 l 0.923602,-0.01288 0.01168,-1.424844 c 0.0116,-1.413339 0.01243,-1.425974 0.102441,-1.564971 0.103478,-0.159774 0.269496,-0.267585 0.412055,-0.267585 0.08508,0 0.154835,-0.10539 0.547518,-0.827089 l 0.450025,-0.827091 V 22.275807 17.386583 L 14.334507,16.16104 c -0.923013,-1.021357 -1.11163,-1.250571 -1.132087,-1.375754 -0.0135,-0.08262 -0.01929,-1.106191 -0.01286,-2.274612 l 0.01171,-2.124401 0.09348,-0.144337 c 0.168817,-0.2606696 0.188689,-0.2633763 1.93366,-0.2633763 1.708555,0 1.687259,-0.00265 1.889371,0.2352953 0.09352,0.110094 0.09793,0.140405 0.109978,0.755128 l 0.01255,0.64043 h 1.32218 1.32218 l 1.56e-4,-0.590111 c 1.56e-4,-0.661706 0.03854,-0.791637 0.282032,-0.95514 0.12235,-0.082154 0.199893,-0.085282 2.114489,-0.085282 1.914597,0 1.992139,0.00313 2.114491,0.085282 0.243503,0.163503 0.281868,0.293434 0.282032,0.95514 l 1.35e-4,0.590111 h 1.322179 1.322181 l 0.01255,-0.641066 c 0.01253,-0.639208 0.01288,-0.641439 0.124296,-0.769392 0.06146,-0.07058 0.158531,-0.149665 0.215709,-0.175748 0.07173,-0.032721 0.607068,-0.043667 1.726787,-0.035306 1.570989,0.011731 1.626337,0.014956 1.732802,0.101002 0.249965,0.202024 0.246247,0.163986 0.246314,2.519713 3.8e-5,1.73661 -0.01015,2.162359 -0.05448,2.274612 -0.03,0.07596 -0.529789,0.659411 -1.110651,1.296568 l -1.056119,1.158467 v 4.950698 4.950699 l 0.430961,0.789775 c 0.387917,0.71089 0.441436,0.78979 0.535841,0.789935 0.134719,2.14e-4 0.334398,0.134573 0.424266,0.285497 0.06356,0.106749 0.07143,0.255085 0.082,1.544915 l 0.01168,1.426826 0.93059,0.01288 c 1.357405,0.01879 1.286711,-0.08095 1.286711,1.815405 0,1.485231 -0.0077,1.534529 -0.268692,1.726562 l -0.132416,0.09742 H 22.281326 12.102142 Z m 19.800847,-1.726561 v -0.6223 h -9.489247 -9.489247 v 0.6223 0.622299 h 9.489247 9.489247 z m -2.221301,-2.875452 v -1.051472 h -7.267946 -7.267945 v 1.051472 1.051471 h 7.267945 7.267946 z m -0.792187,-2.242424 c -0.0096,-0.0177 -0.116167,-0.212147 -0.236903,-0.432098 -0.267121,-0.48663 -0.451778,-0.884008 -0.451778,-0.972216 0,-0.05856 -0.621004,-0.0656 -5.787078,-0.0656 -5.166072,0 -5.787077,0.007 -5.787077,0.0656 0,0.08821 -0.184658,0.485586 -0.45178,0.972216 -0.120734,0.219951 -0.227341,0.414395 -0.236902,0.432098 -0.0096,0.0177 2.904532,0.03219 6.475759,0.03219 3.571228,0 6.485319,-0.01449 6.475759,-0.03219 z m -0.688681,-6.832683 v -4.804846 l 0.282533,-0.01481 c 0.155394,-0.0081 -2.575932,-0.01481 -6.069611,-0.01481 -3.493679,0 -6.225004,0.0066 -6.069611,0.01481 l 0.282534,0.01481 v 4.804846 4.804845 h 5.787077 5.787078 z m 0.886084,-6.020463 c 0.305697,-0.336057 0.555813,-0.625749 0.555813,-0.643758 0,-0.01801 -3.257204,-0.03275 -7.238232,-0.03275 h -7.238228 l 0.583578,0.643758 0.583579,0.643758 h 6.098838 6.098838 z m 1.335217,-3.315908 v -1.437726 h -0.954769 -0.954771 l -1.57e-4,0.590111 c -1.17e-4,0.509201 -0.01047,0.608917 -0.07608,0.727261 -0.168957,0.305182 -0.06505,0.292023 -2.306248,0.292023 -1.974814,0 -2.017625,-0.0018 -2.123063,-0.08849 -0.240109,-0.197444 -0.261454,-0.267437 -0.280345,-0.919236 l -0.01744,-0.601673 H 22.28132 20.985808 l -0.01744,0.601673 c -0.01888,0.651799 -0.04024,0.721792 -0.280342,0.919236 -0.105443,0.0867 -0.148248,0.08849 -2.123064,0.08849 -2.241214,0 -2.137291,0.01316 -2.306259,-0.292023 -0.06552,-0.118344 -0.07595,-0.21806 -0.07608,-0.727261 l -1.38e-4,-0.590111 h -0.95477 -0.95477 v 1.437726 1.437726 h 8.008378 8.00838 z"
       id="path4048" />
    <path
       style="fill:#ffffff;fill-opacity:1;stroke:#000000;stroke-width:0;stroke-linecap:butt;stroke-linejoin:miter;stroke-miterlimit:4;stroke-dasharray:none;stroke-opacity:1"
       d="M 23.555388,38.086027 V 24.306246 l 12.781105,7.221893 z"
       id="path4501" />
  </g>
  <metadata
     id="metadata3738">
    <rdf:RDF>
      <cc:Work
         rdf:about="">
        <dc:title>Rook</dc:title>
      </cc:Work>
    </rdf:RDF>
  </metadata>
</svg>
